<svg width="36" height="36" viewBox="0 0 36 36" fill="none" xmlns="http://www.w3.org/2000/svg">
<circle cx="18" cy="18" r="18" fill="white"/>
<path d="M23.4375 7.45312H12.5625C11.7352 7.45312 11.0625 8.12578 11.0625 8.95312V26.9531C11.0625 27.7805 11.7352 28.4531 12.5625 28.4531H23.4375C24.2648 28.4531 24.9375 27.7805 24.9375 26.9531V8.95312C24.9375 8.12578 24.2648 7.45312 23.4375 7.45312ZM23.25 26.7656H12.75V9.14062H23.25V26.7656ZM17.0625 24.375C17.0625 24.6236 17.1613 24.8621 17.3371 25.0379C17.5129 25.2137 17.7514 25.3125 18 25.3125C18.2486 25.3125 18.4871 25.2137 18.6629 25.0379C18.8387 24.8621 18.9375 24.6236 18.9375 24.375C18.9375 24.1264 18.8387 23.8879 18.6629 23.7121C18.4871 23.5363 18.2486 23.4375 18 23.4375C17.7514 23.4375 17.5129 23.5363 17.3371 23.7121C17.1613 23.8879 17.0625 24.1264 17.0625 24.375Z" fill="#7E57FF"/>
</svg>
