<svg width="36" height="36" viewBox="0 0 36 36" fill="none" xmlns="http://www.w3.org/2000/svg">
<circle cx="18" cy="18" r="18" fill="white"/>
<path d="M18 17C17.4067 17 16.8266 17.1759 16.3333 17.5056C15.8399 17.8352 15.4554 18.3038 15.2284 18.8519C15.0013 19.4001 14.9419 20.0033 15.0576 20.5853C15.1734 21.1672 15.4591 21.7018 15.8787 22.1213C16.2982 22.5409 16.8328 22.8266 17.4147 22.9424C17.9967 23.0581 18.5999 22.9987 19.1481 22.7716C19.6962 22.5446 20.1648 22.1601 20.4944 21.6667C20.8241 21.1734 21 20.5933 21 20C21 19.2044 20.6839 18.4413 20.1213 17.8787C19.5587 17.3161 18.7956 17 18 17ZM18 21C17.8022 21 17.6089 20.9414 17.4444 20.8315C17.28 20.7216 17.1518 20.5654 17.0761 20.3827C17.0004 20.2 16.9806 19.9989 17.0192 19.8049C17.0578 19.6109 17.153 19.4327 17.2929 19.2929C17.4327 19.153 17.6109 19.0578 17.8049 19.0192C17.9989 18.9806 18.2 19.0004 18.3827 19.0761C18.5654 19.1518 18.7216 19.28 18.8315 19.4444C18.9414 19.6089 19 19.8022 19 20C19 20.2652 18.8946 20.5196 18.7071 20.7071C18.5196 20.8946 18.2652 21 18 21ZM25 12H22V11C22 10.2044 21.6839 9.44129 21.1213 8.87868C20.5587 8.31607 19.7956 8 19 8H17C16.2044 8 15.4413 8.31607 14.8787 8.87868C14.3161 9.44129 14 10.2044 14 11V12H11C10.2044 12 9.44129 12.3161 8.87868 12.8787C8.31607 13.4413 8 14.2044 8 15V25C8 25.7956 8.31607 26.5587 8.87868 27.1213C9.44129 27.6839 10.2044 28 11 28H25C25.7956 28 26.5587 27.6839 27.1213 27.1213C27.6839 26.5587 28 25.7956 28 25V15C28 14.2044 27.6839 13.4413 27.1213 12.8787C26.5587 12.3161 25.7956 12 25 12ZM16 11C16 10.7348 16.1054 10.4804 16.2929 10.2929C16.4804 10.1054 16.7348 10 17 10H19C19.2652 10 19.5196 10.1054 19.7071 10.2929C19.8946 10.4804 20 10.7348 20 11V12H16V11ZM10 15C10 14.7348 10.1054 14.4804 10.2929 14.2929C10.4804 14.1054 10.7348 14 11 14H12C12 14.5304 11.7893 15.0391 11.4142 15.4142C11.0391 15.7893 10.5304 16 10 16V15ZM11 26C10.7348 26 10.4804 25.8946 10.2929 25.7071C10.1054 25.5196 10 25.2652 10 25V24C10.5304 24 11.0391 24.2107 11.4142 24.5858C11.7893 24.9609 12 25.4696 12 26H11ZM26 25C26 25.2652 25.8946 25.5196 25.7071 25.7071C25.5196 25.8946 25.2652 26 25 26H24C24 25.4696 24.2107 24.9609 24.5858 24.5858C24.9609 24.2107 25.4696 24 26 24V25ZM26 22C24.9391 22 23.9217 22.4214 23.1716 23.1716C22.4214 23.9217 22 24.9391 22 26H14C14 24.9391 13.5786 23.9217 12.8284 23.1716C12.0783 22.4214 11.0609 22 10 22V18C11.0609 18 12.0783 17.5786 12.8284 16.8284C13.5786 16.0783 14 15.0609 14 14H22C22 15.0609 22.4214 16.0783 23.1716 16.8284C23.9217 17.5786 24.9391 18 26 18V22ZM26 16C25.4696 16 24.9609 15.7893 24.5858 15.4142C24.2107 15.0391 24 14.5304 24 14H25C25.2652 14 25.5196 14.1054 25.7071 14.2929C25.8946 14.4804 26 14.7348 26 15V16Z" fill="#F97316"/>
</svg>
