<svg width="64" height="64" viewBox="0 0 64 64" fill="none" xmlns="http://www.w3.org/2000/svg">
<circle cx="32" cy="32" r="32" fill="white"/>
<path d="M47.925 32.875L50.375 35.3425L38.9475 46.875L32.875 40.75L35.325 38.2825L38.9475 41.9225L47.925 32.875ZM28.5 40.75L33.75 46H16.25V42.5C16.25 38.6325 22.515 35.5 30.25 35.5L33.5575 35.6925L28.5 40.75ZM30.25 18C32.1065 18 33.887 18.7375 35.1997 20.0503C36.5125 21.363 37.25 23.1435 37.25 25C37.25 26.8565 36.5125 28.637 35.1997 29.9497C33.887 31.2625 32.1065 32 30.25 32C28.3935 32 26.613 31.2625 25.3003 29.9497C23.9875 28.637 23.25 26.8565 23.25 25C23.25 23.1435 23.9875 21.363 25.3003 20.0503C26.613 18.7375 28.3935 18 30.25 18Z" fill="#4705AF"/>
</svg>
