<svg width="36" height="36" viewBox="0 0 36 36" fill="none" xmlns="http://www.w3.org/2000/svg">
<circle cx="18" cy="18" r="18" fill="white"/>
<path fill-rule="evenodd" clip-rule="evenodd" d="M24.7167 7.63025C23.9362 7.63214 23.3026 8.24987 23.3026 8.99966V15.7815H26.283C26.9857 15.7815 27.4778 15.5685 27.7924 15.2622C28.1071 14.9558 28.3258 14.4767 28.3258 13.7926V11.1625C28.3258 10.1948 27.9204 9.31104 27.263 8.66114C26.6133 8.02957 25.7084 7.64016 24.7167 7.63025ZM21.6282 8.99966C21.6282 7.33783 23.0243 6 24.7203 6H24.728L24.728 6.00003C26.1671 6.01289 27.4923 6.57889 28.449 7.51034L28.4531 7.51432L28.4531 7.51433C29.402 8.45101 30.0003 9.74007 30.0003 11.1625V13.7926C30.0003 14.8257 29.6609 15.7486 28.9764 16.4149C28.292 17.0813 27.3441 17.4118 26.283 17.4118H22.4654C22.003 17.4118 21.6282 17.0468 21.6282 16.5966V8.99966Z" fill="#202020"/>
<path fill-rule="evenodd" clip-rule="evenodd" d="M7.18031 7.55532C8.07867 6.54246 9.45651 6 11.3023 6H24.6977C25.1601 6 25.5349 6.36494 25.5349 6.81513C25.5349 7.26531 25.1601 7.63025 24.6977 7.63025C23.9321 7.63025 23.3023 8.24346 23.3023 8.98879V27.465C23.3023 29.0319 21.4644 29.9173 20.18 28.9889L20.1774 28.987L18.2597 27.5894C18.1635 27.5173 18.0096 27.5215 17.9111 27.6175L16.0357 29.4434C15.2734 30.1855 14.0289 30.1855 13.2666 29.4434L13.2648 29.4416L11.4136 27.6283C11.4134 27.6282 11.4138 27.6285 11.4136 27.6283C11.3028 27.521 11.1435 27.5158 11.0344 27.5954L9.12878 28.9842C9.12804 28.9847 9.12729 28.9853 9.12654 28.9858C7.83368 29.9368 6 29.0337 6 27.465V11.1625C6 9.85514 6.30177 8.54584 7.18031 7.55532ZM21.9647 7.63025H11.3023C9.7993 7.63025 8.94458 8.06051 8.4476 8.62083C7.93079 9.20351 7.67442 10.0679 7.67442 11.1625V27.465C7.67442 27.6994 7.93717 27.8178 8.11767 27.6847L8.12153 27.6819L10.0298 26.2912C10.8136 25.7188 11.9047 25.8009 12.5976 26.4756L12.5994 26.4773L14.4506 28.2906C14.4504 28.2904 14.4507 28.2908 14.4506 28.2906C14.559 28.3956 14.7435 28.396 14.8517 28.2906L16.7271 26.4647C17.4085 25.8013 18.5015 25.7175 19.2757 26.2934L21.1782 27.68C21.1785 27.6802 21.1788 27.6804 21.1791 27.6806C21.3682 27.8162 21.6279 27.6801 21.6279 27.465V8.98879C21.6279 8.5002 21.7495 8.03827 21.9647 7.63025Z" fill="#202020"/>
<path fill-rule="evenodd" clip-rule="evenodd" d="M10.4653 14.423C10.4653 13.9729 10.8402 13.6079 11.3025 13.6079H18.0002C18.4626 13.6079 18.8374 13.9729 18.8374 14.423C18.8374 14.8732 18.4626 15.2382 18.0002 15.2382H11.3025C10.8402 15.2382 10.4653 14.8732 10.4653 14.423Z" fill="#202020"/>
<path fill-rule="evenodd" clip-rule="evenodd" d="M11.3025 18.7702C11.3025 18.32 11.6773 17.9551 12.1397 17.9551H17.163C17.6253 17.9551 18.0002 18.32 18.0002 18.7702C18.0002 19.2204 17.6253 19.5853 17.163 19.5853H12.1397C11.6773 19.5853 11.3025 19.2204 11.3025 18.7702Z" fill="#202020"/>
</svg>
