<svg width="36" height="36" viewBox="0 0 36 36" fill="none" xmlns="http://www.w3.org/2000/svg">
<circle cx="18" cy="18" r="18" fill="white"/>
<path d="M17 23H13C11.6167 23 10.4377 22.5123 9.463 21.537C8.48767 20.5623 8 19.3833 8 18C8 16.6167 8.48767 15.4373 9.463 14.462C10.4377 13.4873 11.6167 13 13 13H17V15H13C12.1667 15 11.4583 15.2917 10.875 15.875C10.2917 16.4583 10 17.1667 10 18C10 18.8333 10.2917 19.5417 10.875 20.125C11.4583 20.7083 12.1667 21 13 21H17V23ZM14 19V17H22V19H14ZM19 23V21H23C23.8333 21 24.5417 20.7083 25.125 20.125C25.7083 19.5417 26 18.8333 26 18C26 17.1667 25.7083 16.4583 25.125 15.875C24.5417 15.2917 23.8333 15 23 15H19V13H23C24.3833 13 25.5627 13.4873 26.538 14.462C27.5127 15.4373 28 16.6167 28 18C28 19.3833 27.5127 20.5623 26.538 21.537C25.5627 22.5123 24.3833 23 23 23H19Z" fill="#202020"/>
</svg>
