<svg width="72" height="48" viewBox="0 0 72 48" fill="none" xmlns="http://www.w3.org/2000/svg">
<g clip-path="url(#clip0_182_2443)">
<path d="M0 0H72.0001V48.0006H0V0Z" fill="white"/>
<path d="M40.5 -0.000244141H31.5V19.4997H0V28.4997H31.5V47.9996H40.5V28.4997H72.0001V19.4997H40.5V-0.000244141Z" fill="#D80027"/>
<path d="M55.376 32.3473L72 41.583V32.3473H55.376ZM43.826 32.3473L72 47.9994V43.5734L51.7932 32.3473H43.826ZM64.4954 47.9994L43.826 36.5154V47.9994H64.4954Z" fill="#0052B4"/>
<path d="M43.826 32.3473L72 47.9994V43.5734L51.7932 32.3473H43.826Z" fill="white"/>
<path d="M43.826 32.3473L72 47.9994V43.5734L51.7932 32.3473H43.826Z" fill="#D80027"/>
<path d="M12.7042 32.347L0 39.405V32.347H12.7042ZM28.174 34.3375V47.9993H3.58468L28.174 34.3375Z" fill="#0052B4"/>
<path d="M20.2068 32.3473L0 43.5734V47.9994L28.174 32.3473H20.2068Z" fill="#D80027"/>
<path d="M16.624 15.6519L0 6.4162V15.6519H16.624ZM28.174 15.6519L0 -0.000244141V4.42579L20.2068 15.6519H28.174ZM7.5046 -0.000244141L28.174 11.4838V-0.000244141H7.5046Z" fill="#0052B4"/>
<path d="M28.174 15.6519L0 -0.000244141V4.42579L20.2068 15.6519H28.174Z" fill="white"/>
<path d="M28.174 15.6519L0 -0.000244141V4.42579L20.2068 15.6519H28.174Z" fill="#D80027"/>
<path d="M59.2958 15.652L72 8.59406V15.652H59.2958ZM43.826 13.6616V-0.000244141H68.4153L43.826 13.6616Z" fill="#0052B4"/>
<path d="M51.7932 15.6518L72 4.42567V-0.000366211L43.826 15.6518H51.7932Z" fill="#D80027"/>
</g>
<defs>
<clipPath id="clip0_182_2443">
<rect width="72.0001" height="48" rx="8" fill="white"/>
</clipPath>
</defs>
</svg>
