<svg width="64" height="64" viewBox="0 0 64 64" fill="none" xmlns="http://www.w3.org/2000/svg">
<circle cx="32" cy="32" r="32" fill="white"/>
<path d="M46.7226 20.962C46.5878 20.8081 46.4226 20.6836 46.2375 20.5964C46.0524 20.5092 45.8513 20.4612 45.6467 20.4553C42.469 20.3722 38.4481 16.9744 35.7896 15.641C34.1475 14.8199 33.0633 14.2785 32.2492 14.1359C32.0839 14.1118 31.9159 14.1123 31.7507 14.1373C30.9366 14.2799 29.8524 14.8213 28.2116 15.6424C25.5532 16.9744 21.5323 20.3722 18.3546 20.4553C18.1499 20.4615 17.9486 20.5097 17.7633 20.5968C17.578 20.684 17.4126 20.8083 17.2773 20.962C16.9969 21.2793 16.8522 21.694 16.8744 22.1168C17.557 35.9948 22.5347 44.5836 31.2689 49.5751C31.496 49.7039 31.748 49.7703 31.9986 49.7703C32.2492 49.7703 32.5012 49.7039 32.7296 49.5751C41.4638 44.5836 46.4401 35.9948 47.1241 22.1168C47.1476 21.694 47.0033 21.2791 46.7226 20.962ZM39.7773 26.4202L32.407 37.2963C32.1426 37.6868 31.7272 37.9457 31.316 37.9457C30.9033 37.9457 30.445 37.72 30.1556 37.4307L24.9606 32.2342C24.791 32.064 24.6957 31.8334 24.6957 31.5931C24.6957 31.3528 24.791 31.1223 24.9606 30.952L26.2441 29.6657C26.4147 29.4968 26.6451 29.402 26.8852 29.402C27.1253 29.402 27.3557 29.4968 27.5263 29.6657L30.9047 33.0442L36.7741 24.3807C36.9099 24.1824 37.1186 24.0459 37.3547 24.0011C37.5908 23.9562 37.835 24.0065 38.0341 24.1411L39.5364 25.1602C39.7349 25.2958 39.8716 25.5044 39.9168 25.7405C39.9619 25.9766 39.9118 26.221 39.7773 26.4202Z" fill="#4705AF"/>
</svg>
