<svg width="167" height="64" viewBox="0 0 167 64" fill="none" xmlns="http://www.w3.org/2000/svg">
<path fill-rule="evenodd" clip-rule="evenodd" d="M24.7089 13.9312C28.1481 13.9312 31.4285 14.6532 34.4106 15.9542C35.9305 14.34 36.864 12.1539 36.864 9.74705C36.864 9.65488 36.862 9.5627 36.8594 9.47114H43.7482C43.7462 13.278 42.406 16.7671 40.178 19.4823C41.3597 20.4488 42.4524 21.523 43.4418 22.6895C46.3408 25.5397 48.1429 29.5291 48.1429 33.9454C48.1429 42.6074 41.2125 49.6292 32.6628 49.6292C24.1134 49.6292 17.1831 42.6074 17.1831 33.9454C17.1831 31.0661 17.949 28.3681 19.2848 26.0492C20.5057 23.9311 22.1084 22.2058 23.9863 20.9214C14.5138 21.3088 6.88317 29.2773 6.88317 38.9658V38.9661C6.88317 48.8991 14.9046 57.0261 24.7086 57.0261H33.6214H42.5344H49.4176V64H24.7089C11.1186 64 0 52.735 0 38.9658C0 25.1962 11.1186 13.9312 24.7089 13.9312ZM40.3038 0C38.4091 0 36.8594 1.57017 36.8594 3.48981C36.8594 5.40945 38.4091 6.97962 40.3038 6.97962C42.1985 6.97962 43.7482 5.40945 43.7482 3.48981C43.7482 1.57017 42.1985 0 40.3038 0ZM32.3824 25.2362C37.2846 25.2362 41.2587 29.2627 41.2587 34.2295C41.2587 39.1963 37.2846 43.2227 32.3824 43.2227C27.4803 43.2227 23.5061 39.1963 23.5061 34.2295C23.5061 29.2627 27.4803 25.2362 32.3824 25.2362Z" fill="url(#paint0_linear_182_2337)"/>
<path d="M72.1099 54.1309C69.7326 54.1309 67.7059 53.7094 66.03 52.8663C64.3539 52.0233 62.9869 50.9275 61.929 49.5786C60.8711 48.2298 60.0926 46.7665 59.5934 45.1889C59.0941 43.6111 58.8445 42.0757 58.8445 40.5823V39.7875C58.8445 38.1737 59.1 36.566 59.6112 34.9642C60.1223 33.3625 60.9127 31.9112 61.9825 30.6106C63.0524 29.3099 64.4074 28.2681 66.0477 27.4854C67.6881 26.7026 69.6494 26.3112 71.9316 26.3112C74.2613 26.3112 76.3058 26.7447 78.065 27.6119C79.8242 28.479 81.2268 29.6832 82.2729 31.2247C83.3189 32.7663 83.9488 34.5728 84.1628 36.6442H79.0634C78.7782 34.8377 77.9878 33.4588 76.6921 32.5074C75.3965 31.556 73.8097 31.0803 71.9316 31.0803C70.1961 31.0803 68.74 31.4717 67.5633 32.2544C66.3865 33.0373 65.495 34.1152 64.8888 35.4881C64.2826 36.861 63.9795 38.4386 63.9795 40.2211C63.9795 41.9552 64.2886 43.5088 64.9066 44.8818C65.5247 46.2547 66.44 47.3445 67.6524 48.1515C68.8648 48.9584 70.3506 49.3618 72.1099 49.3618C74.0593 49.3618 75.7056 48.8741 77.0487 47.8985C78.3919 46.923 79.2061 45.5562 79.4914 43.7979H84.5907C84.3529 45.7007 83.717 47.4349 82.6829 49.0005C81.6488 50.5661 80.2461 51.8126 78.4751 52.7399C76.704 53.6673 74.5822 54.1309 72.1099 54.1309ZM93.3218 53.9502C91.1822 53.9502 89.4764 53.3963 88.2047 52.2883C86.9328 51.1803 86.2969 49.6268 86.2969 47.6276C86.2969 45.4839 87.0636 43.9003 88.5969 42.8766C90.1302 41.8528 92.1925 41.341 94.7838 41.341H98.742V41.1604C98.742 38.9204 97.6247 37.8004 95.3901 37.8004C94.7957 37.8004 94.0826 37.8124 93.2504 37.8365C92.4184 37.8606 91.5804 37.8907 90.7365 37.9268C89.8926 37.9629 89.1377 38.0051 88.4721 38.0533V33.79C89.2804 33.7177 90.2491 33.6575 91.3784 33.6094C92.5076 33.5612 93.5476 33.537 94.4986 33.537C97.4702 33.537 99.7108 34.1452 101.22 35.3616C102.73 36.578 103.485 38.5471 103.485 41.2688V53.4444H99.5622V49.687C98.6826 52.5291 96.6025 53.9502 93.3218 53.9502ZM94.7125 50.3735C95.3781 50.3735 96.0081 50.247 96.6025 49.9941C97.1968 49.7411 97.69 49.3077 98.0823 48.6934C98.4746 48.0792 98.6945 47.2422 98.742 46.1824V44.3398H94.7125C93.5714 44.3398 92.6977 44.6228 92.0916 45.1889C91.4853 45.7548 91.1822 46.4834 91.1822 47.3747C91.1822 48.2899 91.4853 49.0185 92.0916 49.5606C92.6977 50.1025 93.5714 50.3735 94.7125 50.3735ZM108.151 53.4444V33.8261H112.073V40.2211C112.596 35.7892 114.902 33.5732 118.991 33.5732H119.704V37.9449H118.349C116.661 37.9449 115.366 38.4025 114.462 39.3178C113.559 40.2331 113.107 41.5338 113.107 43.2198V53.4444H108.151ZM130.254 54.0948C128.447 54.0948 126.843 53.6552 125.44 52.7761C124.037 51.8969 122.938 50.6986 122.142 49.1811C121.345 47.6637 120.947 45.9536 120.947 44.0508V43.2921C120.947 41.4133 121.327 39.7152 122.088 38.1978C122.849 36.6803 123.913 35.47 125.28 34.5667C126.647 33.6636 128.257 33.2119 130.111 33.2119C131.49 33.2119 132.732 33.4949 133.838 34.0609C134.943 34.627 135.853 35.476 136.566 36.6081V27.0699H141.522V53.4444H137.6V49.3257C136.934 50.9154 135.954 52.1076 134.658 52.9025C133.362 53.6973 131.894 54.0948 130.254 54.0948ZM131.36 49.8676C132.334 49.8676 133.226 49.6449 134.034 49.1992C134.842 48.7536 135.49 48.1093 135.977 47.2663C136.465 46.4233 136.708 45.4116 136.708 44.2314V42.7863C136.708 41.6542 136.453 40.6908 135.942 39.8959C135.431 39.1011 134.771 38.4929 133.963 38.0714C133.154 37.6499 132.287 37.439 131.36 37.439C129.743 37.439 128.43 38.0111 127.419 39.1552C126.409 40.2994 125.904 41.8107 125.904 43.6895C125.904 45.5682 126.415 47.0676 127.437 48.1876C128.459 49.3077 129.767 49.8676 131.36 49.8676ZM146.509 53.4444V33.8261H150.432V40.2211C150.955 35.7892 153.261 33.5732 157.35 33.5732H158.063V37.9449H156.708C155.02 37.9449 153.725 38.4025 152.821 39.3178C151.918 40.2331 151.466 41.5338 151.466 43.2198V53.4444H146.509ZM163.478 31.4777C162.503 31.4777 161.784 31.2188 161.32 30.7009C160.857 30.1831 160.625 29.5267 160.625 28.7319C160.625 27.937 160.857 27.2866 161.32 26.7808C161.784 26.2751 162.503 26.0222 163.478 26.0222C164.429 26.0222 165.136 26.2751 165.6 26.7808C166.063 27.2866 166.295 27.937 166.295 28.7319C166.295 29.5267 166.063 30.1831 165.6 30.7009C165.136 31.2188 164.429 31.4777 163.478 31.4777ZM161.659 53.4444V37.5836H158.949V33.8261H166.616V53.4444H161.659Z" fill="#1F1F1F"/>
<defs>
<linearGradient id="paint0_linear_182_2337" x1="5.11502" y1="32.7312" x2="58.5272" y2="33.6805" gradientUnits="userSpaceOnUse">
<stop stop-color="#4705AF"/>
<stop offset="1" stop-color="#A382D7"/>
</linearGradient>
</defs>
</svg>
