<svg width="36" height="36" viewBox="0 0 36 36" fill="none" xmlns="http://www.w3.org/2000/svg">
<circle cx="18" cy="18" r="18" fill="white"/>
<path d="M24.886 17.1772C25.6086 17.9091 26.2136 18.7485 26.6794 19.6655C26.7883 19.8784 26.8081 20.1259 26.7345 20.3535C26.6609 20.5811 26.4999 20.7701 26.287 20.8789C26.074 20.9878 25.8265 21.0076 25.5989 20.934C25.3714 20.8604 25.1824 20.6994 25.0735 20.4865C24.6933 19.7373 24.1999 19.0513 23.6106 18.4526C22.7294 17.5711 21.6519 16.9111 20.4664 16.5264C19.2809 16.1418 18.0211 16.0436 16.7903 16.2398C15.5595 16.436 14.3927 16.9211 13.3855 17.6553C12.3784 18.3895 11.5596 19.3519 10.9962 20.4636C10.9446 20.5723 10.8717 20.6696 10.782 20.7497C10.6922 20.8298 10.5873 20.8911 10.4735 20.93C10.3597 20.969 10.2392 20.9847 10.1192 20.9764C9.99918 20.968 9.88205 20.9357 9.7747 20.8814C9.66736 20.8271 9.57197 20.7519 9.49416 20.6601C9.41635 20.5684 9.35768 20.462 9.32163 20.3472C9.28557 20.2324 9.27285 20.1116 9.28422 19.9918C9.29558 19.8721 9.3308 19.7558 9.3878 19.6498C10.0798 18.2838 11.0857 17.1012 12.323 16.1989C13.5603 15.2967 14.9938 14.7005 16.506 14.4593C18.0182 14.218 19.5661 14.3385 21.0227 14.811C22.4793 15.2834 23.8032 16.0943 24.886 17.1772ZM22.3592 20.8675C22.8978 21.4048 23.3401 22.066 23.6478 22.7692C23.6954 22.8776 23.721 22.9944 23.7234 23.1127C23.7258 23.2311 23.7049 23.3488 23.6618 23.4591C23.6187 23.5694 23.5543 23.6701 23.4723 23.7555C23.3903 23.8409 23.2923 23.9093 23.1838 23.9568C23.0754 24.0043 22.9587 24.03 22.8403 24.0324C22.7219 24.0348 22.6042 24.0139 22.4939 23.9708C22.3836 23.9277 22.2829 23.8633 22.1975 23.7813C22.1121 23.6993 22.0437 23.6013 21.9962 23.4928C21.7775 22.9903 21.4682 22.5323 21.0838 22.1417C20.6829 21.7407 20.2069 21.4227 19.683 21.2057C19.1591 20.9887 18.5977 20.877 18.0306 20.877C17.4636 20.877 16.9021 20.9887 16.3782 21.2057C15.8543 21.4227 15.3783 21.7407 14.9774 22.1417C14.6047 22.5143 14.3018 22.9699 14.0794 23.476C14.0346 23.5881 13.9676 23.69 13.8826 23.7757C13.7976 23.8614 13.6962 23.9291 13.5845 23.9749C13.4728 24.0207 13.353 24.0436 13.2323 24.0422C13.1116 24.0409 12.9924 24.0153 12.8818 23.967C12.7711 23.9186 12.6713 23.8486 12.5883 23.761C12.5052 23.6734 12.4406 23.57 12.3983 23.4569C12.3559 23.3439 12.3367 23.2235 12.3418 23.1028C12.3469 22.9822 12.3761 22.8639 12.4278 22.7548C12.7316 22.0517 13.1641 21.4116 13.7032 20.8675C14.8511 19.7197 16.4079 19.0749 18.0312 19.0749C19.6545 19.0749 21.2113 19.7197 22.3592 20.8675ZM28.1351 14.2069C28.7482 14.8188 29.3252 15.5172 29.8276 16.2468C29.8983 16.3441 29.9489 16.4545 29.9763 16.5716C30.0037 16.6886 30.0074 16.81 29.9872 16.9285C29.967 17.0471 29.9232 17.1604 29.8586 17.2618C29.7939 17.3631 29.7096 17.4506 29.6107 17.5189C29.5117 17.5872 29.4001 17.635 29.2824 17.6596C29.1647 17.6841 29.0433 17.6848 28.9253 17.6617C28.8072 17.6386 28.6951 17.5922 28.5953 17.5251C28.4955 17.4579 28.4102 17.3715 28.3443 17.271C27.9039 16.6312 27.407 16.0322 26.8597 15.4811C21.9553 10.5767 14.0037 10.5767 9.09931 15.4811C8.59204 15.9884 8.08958 16.6038 7.63039 17.2649C7.49174 17.4554 7.28405 17.584 7.05177 17.6233C6.81949 17.6625 6.58107 17.6093 6.38754 17.475C6.194 17.3407 6.06073 17.1359 6.01623 16.9046C5.97174 16.6733 6.01955 16.4337 6.14945 16.2372C6.66634 15.4919 7.23612 14.7947 7.82512 14.2057C13.4327 8.5981 22.5263 8.5981 28.1351 14.2057V14.2069ZM19.2555 24.0157C19.5938 24.354 19.7838 24.8127 19.7838 25.2911C19.7838 25.7695 19.5938 26.2282 19.2555 26.5665C18.9173 26.9047 18.4585 27.0948 17.9801 27.0948C17.5018 27.0948 17.043 26.9047 16.7047 26.5665C16.3665 26.2282 16.1765 25.7695 16.1765 25.2911C16.1765 24.8127 16.3665 24.354 16.7047 24.0157C17.043 23.6775 17.5018 23.4874 17.9801 23.4874C18.4585 23.4874 18.9173 23.6775 19.2555 24.0157Z" fill="#007CEE"/>
</svg>
