<svg width="72" height="48" viewBox="0 0 72 48" fill="none" xmlns="http://www.w3.org/2000/svg">
<g clip-path="url(#clip0_182_2440)">
<path d="M0 0H72V48H0V0Z" fill="#003399"/>
<path d="M35.9957 5.32129L36.5943 7.16289H38.5405L36.9731 8.30173L37.5631 10.1453L35.9957 9.00644L34.4282 10.1453L35.027 8.30271L33.4596 7.16387H35.397L35.9957 5.32129ZM27.9957 7.45462L28.5943 9.29622H30.5405L28.9731 10.4351L29.5631 12.2786L27.9957 11.1398L26.4282 12.2786L27.027 10.436L25.4596 9.2972H27.397L27.9957 7.45462ZM22.129 13.3213L22.7277 15.1629H24.6738L23.1064 16.3017L23.6965 18.1453L22.129 17.0064L20.5616 18.1453L21.1603 16.3027L19.5929 15.1639H21.5304L22.129 13.3213ZM19.9957 21.3212L20.5944 23.1629H22.5405L20.9731 24.3018L21.5632 26.1454L19.9957 25.0064L18.4282 26.1454L19.027 24.3026L17.4596 23.1639H19.397L19.9957 21.3212ZM22.129 29.3213L22.7277 31.163H24.6738L23.1064 32.3017L23.6965 34.1453L22.129 33.0065L20.5616 34.1453L21.1603 32.3027L19.5929 31.1639H21.5304L22.129 29.3213ZM27.9957 35.188L28.5943 37.0296H30.5405L28.9731 38.1684L29.5631 40.012L27.9957 38.8732L26.4282 40.012L27.027 38.1694L25.4596 37.0305H27.397L27.9957 35.188ZM43.9957 7.45462L44.5943 9.29622H46.5405L44.9731 10.4351L45.5631 12.2786L43.9957 11.1398L42.4281 12.2786L43.027 10.436L41.4596 9.2972H43.3969L43.9957 7.45462ZM49.8623 13.3213L50.461 15.1629H52.4071L50.8398 16.3017L51.4297 18.1453L49.8623 17.0064L48.2948 18.1453L48.8936 16.3027L47.3263 15.1639H49.2636L49.8623 13.3213ZM51.9957 21.3213L52.5943 23.1629H54.5405L52.9731 24.3018L53.5631 26.1454L51.9957 25.0064L50.4282 26.1454L51.027 24.3026L49.4596 23.1639H51.397L51.9957 21.3213ZM49.8623 29.3213L50.461 31.163H52.4071L50.8398 32.3017L51.4298 34.1453L49.8623 33.0065L48.2949 34.1453L48.8936 32.3027L47.3263 31.1639H49.2637L49.8623 29.3213ZM35.9957 37.3213L36.5943 39.163H38.5405L36.9731 40.3017L37.5631 42.1453L35.9957 41.0065L34.4282 42.1453L35.027 40.3027L33.4596 39.1639H35.397L35.9957 37.3213ZM43.9957 35.1879L44.5943 37.0296H46.5405L44.9731 38.1684L45.5632 40.012L43.9957 38.8731L42.4283 40.012L43.027 38.1693L41.4596 37.0305H43.3971L43.9957 35.1879Z" fill="#FFCC00"/>
</g>
<defs>
<clipPath id="clip0_182_2440">
<rect width="72" height="48" rx="8" fill="white"/>
</clipPath>
</defs>
</svg>
