<svg width="64" height="64" viewBox="0 0 64 64" fill="none" xmlns="http://www.w3.org/2000/svg">
<circle cx="32" cy="32" r="32" fill="white"/>
<path d="M20.975 19.3999C19.4434 19.3999 17.9745 20.0083 16.8915 21.0914C15.8084 22.1744 15.2 23.6433 15.2 25.1749V27.7999H48.8V25.1749C48.8 23.6433 48.1916 22.1744 47.1086 21.0914C46.0255 20.0083 44.5566 19.3999 43.025 19.3999H20.975ZM48.8 29.8999H15.2V38.8249C15.2 40.3565 15.8084 41.8254 16.8915 42.9084C17.9745 43.9915 19.4434 44.5999 20.975 44.5999H43.025C44.5566 44.5999 46.0255 43.9915 47.1086 42.9084C48.1916 41.8254 48.8 40.3565 48.8 38.8249V29.8999ZM39.35 38.2999H43.55C43.8285 38.2999 44.0956 38.4105 44.2925 38.6074C44.4894 38.8044 44.6 39.0714 44.6 39.3499C44.6 39.6284 44.4894 39.8955 44.2925 40.0924C44.0956 40.2893 43.8285 40.3999 43.55 40.3999H39.35C39.0715 40.3999 38.8045 40.2893 38.6075 40.0924C38.4106 39.8955 38.3 39.6284 38.3 39.3499C38.3 39.0714 38.4106 38.8044 38.6075 38.6074C38.8045 38.4105 39.0715 38.2999 39.35 38.2999Z" fill="#4705AF"/>
</svg>
