<svg width="36" height="36" viewBox="0 0 36 36" fill="none" xmlns="http://www.w3.org/2000/svg">
<circle cx="18" cy="18" r="18" fill="white"/>
<g clip-path="url(#clip0_182_2508)">
<path d="M28.125 10.1484H20.1856L23.5841 6.75H21.4628L18.0644 10.1484H17.9591L14.5606 6.75H12.4394L15.8378 10.1484H7.875C7.57674 10.1488 7.29079 10.2674 7.07989 10.4783C6.86899 10.6892 6.75035 10.9752 6.75 11.2734V25.1484C6.75035 25.4467 6.86899 25.7326 7.07989 25.9435C7.29079 26.1545 7.57674 26.2731 7.875 26.2734H13.125V29.25H23.625V26.2734H28.125C28.4233 26.2731 28.7092 26.1545 28.9201 25.9435C29.131 25.7326 29.2497 25.4467 29.25 25.1484V11.2734C29.2497 10.9752 29.131 10.6892 28.9201 10.4783C28.7092 10.2674 28.4233 10.1488 28.125 10.1484ZM22.125 27.75H14.625V26.2734H22.125V27.75ZM27.75 24.7734H8.25V11.6484H27.75V24.7734Z" fill="#12BD89"/>
</g>
<defs>
<clipPath id="clip0_182_2508">
<rect width="24" height="24" fill="white" transform="translate(6 6)"/>
</clipPath>
</defs>
</svg>
