<svg width="72" height="48" viewBox="0 0 72 48" fill="none" xmlns="http://www.w3.org/2000/svg">
<g clip-path="url(#clip0_182_2442)">
<path d="M0 0H72V48H0V0Z" fill="white"/>
<path d="M0 0H72V3.69123H0V0ZM0 7.38246H72V11.0737H0V7.38246ZM0 14.7649H72V18.4561H0V14.7649ZM0 22.1474H72V25.8386H0V22.1474ZM0 29.5439H72V33.2351H0V29.5439ZM0 36.9263H72V40.6175H0V36.9263ZM0 44.3088H72V48H0V44.3088Z" fill="#D80027"/>
<path d="M0 0H36V25.8386H0V0Z" fill="#2E52B2"/>
<path d="M6.70882 19.4947L6.14742 17.6983L5.52988 19.4947H3.67725L5.179 20.5755L4.6176 22.3719L6.14742 21.2632L7.63514 22.3719L7.0597 20.5755L8.58953 19.4947H6.70882ZM14.6106 19.4947L14.0351 17.6983L13.4457 19.4947H11.593L13.0948 20.5755L12.5334 22.3719L14.0351 21.2632L15.5509 22.3719L14.9895 20.5755L16.4913 19.4947H14.6106ZM22.5404 19.4947L21.9369 17.6983L21.3755 19.4947H19.4808L21.0246 20.5755L20.4351 22.3719L21.9369 21.2632L23.4808 22.3719L22.8913 20.5755L24.393 19.4947H22.5404ZM30.4281 19.4947L29.8667 17.6983L29.2772 19.4947H27.4106L28.9264 20.5755L28.365 22.3719L29.8667 21.2632L31.3825 22.3719L30.779 20.5755L32.3229 19.4947H30.4281ZM14.0351 10.5684L13.4457 12.3649H11.593L13.0948 13.4737L12.5334 15.2421L14.0351 14.1474L15.5509 15.2421L14.9895 13.4737L16.4913 12.3649H14.6106L14.0351 10.5684ZM6.14742 10.5684L5.52988 12.3649H3.67725L5.179 13.4737L4.6176 15.2421L6.14742 14.1474L7.63514 15.2421L7.0597 13.4737L8.58953 12.3649H6.70882L6.14742 10.5684ZM21.9369 10.5684L21.3755 12.3649H19.4808L21.0246 13.4737L20.4351 15.2421L21.9369 14.1474L23.4808 15.2421L22.8913 13.4737L24.393 12.3649H22.5404L21.9369 10.5684ZM29.8667 10.5684L29.2772 12.3649H27.4106L28.9264 13.4737L28.365 15.2421L29.8667 14.1474L31.3825 15.2421L30.779 13.4737L32.3229 12.3649H30.4281L29.8667 10.5684ZM6.14742 3.46667L5.52988 5.2351H3.67725L5.179 6.34387L4.6176 8.12632L6.14742 7.01755L7.63514 8.12632L7.0597 6.34387L8.58953 5.2351H6.70882L6.14742 3.46667ZM14.0351 3.46667L13.4457 5.2351H11.593L13.0948 6.34387L12.5334 8.12632L14.0351 7.01755L15.5509 8.12632L14.9895 6.34387L16.4913 5.2351H14.6106L14.0351 3.46667ZM21.9369 3.46667L21.3755 5.2351H19.4808L21.0246 6.34387L20.4351 8.12632L21.9369 7.01755L23.4808 8.12632L22.8913 6.34387L24.393 5.2351H22.5404L21.9369 3.46667ZM29.8667 3.46667L29.2772 5.2351H27.4106L28.9264 6.34387L28.365 8.12632L29.8667 7.01755L31.3825 8.12632L30.779 6.34387L32.3229 5.2351H30.4281L29.8667 3.46667Z" fill="white"/>
</g>
<defs>
<clipPath id="clip0_182_2442">
<rect width="72" height="48" rx="8" fill="white"/>
</clipPath>
</defs>
</svg>
